<?xml version="1.0" encoding="UTF-8" standalone="yes"?>
<svg xmlns="http://www.w3.org/2000/svg" viewBox="0 0 80 80" width="80" height="80" fill="#000000">
  <path d="M 19 9 C 17.90625 9 17 9.90625 17 11 L 17 14 C 15.90625 14 15 14.90625 15 16 L 15 63.902344 L 14 68.902344 L 14 71 L 66 71 L 66 68.902344 L 65 63.894531 L 65 16 C 65 14.90625 64.09375 14 63 14 L 63 11 C 63 9.90625 62.09375 9 61 9 Z M 19 11 L 61 11 L 61 14 L 19 14 Z M 17 16 L 63 16 L 63 64.09375 L 63.980469 69 L 16.019531 69 L 17 64.097656 Z M 30 21 C 28.894531 21 28 21.894531 28 23 C 28 23.714844 28.382813 24.375 29 24.730469 L 29 28 C 29 34.0625 33.9375 39 40 39 C 46.0625 39 51 34.0625 51 28 L 51 24.730469 C 51.617188 24.371094 52 23.714844 52 23 C 52 21.894531 51.105469 21 50 21 C 48.894531 21 48 21.894531 48 23 C 48 23.714844 48.382813 24.375 49 24.730469 L 49 28 C 49 32.984375 44.984375 37 40 37 C 35.015625 37 31 32.984375 31 28 L 31 24.730469 C 31.617188 24.371094 32 23.714844 32 23 C 32 21.894531 31.105469 21 30 21 Z M 20 63 C 19.449219 63 19 63.449219 19 64 C 19 64.550781 19.449219 65 20 65 C 20.550781 65 21 64.550781 21 64 C 21 63.449219 20.550781 63 20 63 Z M 24 63 C 23.449219 63 23 63.449219 23 64 C 23 64.550781 23.449219 65 24 65 C 24.550781 65 25 64.550781 25 64 C 25 63.449219 24.550781 63 24 63 Z M 28 63 C 27.449219 63 27 63.449219 27 64 C 27 64.550781 27.449219 65 28 65 C 28.550781 65 29 64.550781 29 64 C 29 63.449219 28.550781 63 28 63 Z M 32 63 C 31.449219 63 31 63.449219 31 64 C 31 64.550781 31.449219 65 32 65 C 32.550781 65 33 64.550781 33 64 C 33 63.449219 32.550781 63 32 63 Z M 36 63 C 35.449219 63 35 63.449219 35 64 C 35 64.550781 35.449219 65 36 65 C 36.550781 65 37 64.550781 37 64 C 37 63.449219 36.550781 63 36 63 Z M 40 63 C 39.449219 63 39 63.449219 39 64 C 39 64.550781 39.449219 65 40 65 C 40.550781 65 41 64.550781 41 64 C 41 63.449219 40.550781 63 40 63 Z M 44 63 C 43.449219 63 43 63.449219 43 64 C 43 64.550781 43.449219 65 44 65 C 44.550781 65 45 64.550781 45 64 C 45 63.449219 44.550781 63 44 63 Z M 48 63 C 47.449219 63 47 63.449219 47 64 C 47 64.550781 47.449219 65 48 65 C 48.550781 65 49 64.550781 49 64 C 49 63.449219 48.550781 63 48 63 Z M 52 63 C 51.449219 63 51 63.449219 51 64 C 51 64.550781 51.449219 65 52 65 C 52.550781 65 53 64.550781 53 64 C 53 63.449219 52.550781 63 52 63 Z M 56 63 C 55.449219 63 55 63.449219 55 64 C 55 64.550781 55.449219 65 56 65 C 56.550781 65 57 64.550781 57 64 C 57 63.449219 56.550781 63 56 63 Z M 60 63 C 59.449219 63 59 63.449219 59 64 C 59 64.550781 59.449219 65 60 65 C 60.550781 65 61 64.550781 61 64 C 61 63.449219 60.550781 63 60 63 Z"/>
</svg>
